<svg width="94" height="56" viewBox="0 0 94 56" fill="none" xmlns="http://www.w3.org/2000/svg">
<g clip-path="url(#clip0_1_11)">
<path d="M16.0959 9.17516V0.316406H49.8973V9.17516M16.0959 46.5085V55.6836H49.8973V46.5085" stroke="#1A1947" stroke-width="2"/>
<path d="M32.1918 12.0226H0V43.661H32.1918V12.0226Z" fill="#1A1947"/>
<path d="M40.4058 31.9548H39.5991L42.6651 23.6713H43.4882L46.5542 31.9548H45.7474L43.1054 24.6542H43.0478L40.4058 31.9548ZM40.9859 28.7797H45.1673V29.4592H40.9859V28.7797ZM47.9986 31.9548V23.6713H50.7191C51.3172 23.6713 51.8165 23.7845 52.217 24.011C52.6204 24.2349 52.9236 24.5396 53.1264 24.9251C53.3321 25.3107 53.4351 25.7449 53.4351 26.2275C53.4351 26.7102 53.3337 27.1457 53.1306 27.534C52.9275 27.9196 52.6258 28.2256 52.2254 28.4521C51.8246 28.6759 51.3266 28.7878 50.7314 28.7878H48.5912V28.1083H50.7108C51.1524 28.1083 51.5188 28.0274 51.8095 27.8656C52.1005 27.7012 52.3171 27.4773 52.4597 27.1942C52.6052 26.9111 52.678 26.5889 52.678 26.2275C52.678 25.8662 52.6052 25.544 52.4597 25.2609C52.3171 24.9777 52.0989 24.7553 51.8056 24.5935C51.5146 24.4317 51.1457 24.3508 50.6985 24.3508H48.7683V31.9548H47.9986ZM55.2418 31.9548V23.6713H57.9623C58.5604 23.6713 59.0597 23.7845 59.4602 24.011C59.8635 24.2349 60.1668 24.5396 60.3696 24.9251C60.5753 25.3107 60.6783 25.7449 60.6783 26.2275C60.6783 26.7102 60.5769 27.1457 60.3738 27.534C60.1706 27.9196 59.869 28.2256 59.4685 28.4521C59.0677 28.6759 58.5697 28.7878 57.9745 28.7878H55.8344V28.1083H57.9539C58.3956 28.1083 58.7619 28.0274 59.0526 27.8656C59.3436 27.7012 59.5603 27.4773 59.7029 27.1942C59.8484 26.9111 59.9211 26.5889 59.9211 26.2275C59.9211 25.8662 59.8484 25.544 59.7029 25.2609C59.5603 24.9777 59.342 24.7553 59.0487 24.5935C58.7577 24.4317 58.3888 24.3508 57.9417 24.3508H56.0115V31.9548H55.2418ZM62.4849 31.9548V23.6713H67.3616V24.3508H63.2546V27.4693H66.9789V28.1488H63.2546V31.9548H62.4849ZM69.2754 31.9548V23.6713H70.0451V31.2753H74.0617V31.9548H69.2754ZM82.3759 27.8131C82.3759 28.6759 82.2194 29.4269 81.9068 30.0659C81.5939 30.7023 81.1632 31.1958 80.6143 31.5463C80.0684 31.8941 79.4403 32.0681 78.7295 32.0681C78.019 32.0681 77.3894 31.8941 76.8405 31.5463C76.2945 31.1958 75.8654 30.7023 75.5525 30.0659C75.2425 29.4269 75.0873 28.6759 75.0873 27.8131C75.0873 26.9502 75.2425 26.2006 75.5525 25.5642C75.8654 24.9251 76.2961 24.4317 76.8447 24.0839C77.3936 23.7333 78.0216 23.558 78.7295 23.558C79.4403 23.558 80.0684 23.7333 80.6143 24.0839C81.1632 24.4317 81.5939 24.9251 81.9068 25.5642C82.2194 26.2006 82.3759 26.9502 82.3759 27.8131ZM81.6268 27.8131C81.6268 27.0715 81.5006 26.4365 81.2482 25.908C80.9958 25.3768 80.6514 24.971 80.2152 24.6906C79.779 24.4101 79.2839 24.2699 78.7295 24.2699C78.1781 24.2699 77.6842 24.4101 77.2481 24.6906C76.8119 24.971 76.4661 25.3755 76.2108 25.904C75.9585 26.4325 75.8323 27.0688 75.8323 27.8131C75.8323 28.5546 75.9585 29.1896 76.2108 29.7181C76.4635 30.2466 76.8077 30.6524 77.2439 30.9356C77.6801 31.216 78.1755 31.3562 78.7295 31.3562C79.2839 31.3562 79.779 31.216 80.2152 30.9356C80.6543 30.6551 81 30.2506 81.2524 29.7222C81.5048 29.1909 81.6297 28.5546 81.6268 27.8131ZM85.7023 31.9548L83.3935 23.6713H84.1754L86.085 30.794H86.1507L88.0603 23.6713H88.9491L90.8587 30.794H90.9247L92.8343 23.6713H93.6201L91.3114 31.9548H90.4885L88.5335 24.9292H88.4801L86.5254 31.9548H85.7023Z" fill="#1A1947"/>
<path d="M39.7404 38.9153V35.4638H40.9254C41.154 35.4638 41.3442 35.5031 41.4962 35.5818C41.6494 35.6603 41.7643 35.7676 41.8409 35.9036C41.9175 36.0396 41.9559 36.194 41.9559 36.3671C41.9559 36.5111 41.9314 36.6338 41.8821 36.7363C41.8329 36.8385 41.7659 36.9211 41.6816 36.9841C41.5969 37.0467 41.5026 37.0923 41.3986 37.1204V37.1473C41.5116 37.1552 41.6214 37.1945 41.7279 37.2653C41.8342 37.3349 41.9214 37.4327 41.9903 37.5586C42.0589 37.6845 42.093 37.8351 42.093 38.0104C42.093 38.1844 42.0537 38.3401 41.9748 38.4771C41.896 38.6131 41.7746 38.7204 41.6111 38.7988C41.4488 38.8763 41.2418 38.9153 40.9904 38.9153H39.7404ZM40.061 38.6321H40.9904C41.2615 38.6321 41.4614 38.5733 41.5905 38.4552C41.7209 38.3372 41.7862 38.1888 41.7862 38.0104C41.7862 37.8788 41.7534 37.7598 41.6883 37.6529C41.6243 37.545 41.5335 37.4599 41.4157 37.3969C41.2991 37.334 41.162 37.3023 41.0043 37.3023H40.061V38.6321ZM40.061 37.0227H40.9544C41.0928 37.0227 41.2138 36.9945 41.3178 36.9385C41.4221 36.8822 41.5032 36.8047 41.5615 36.706C41.6198 36.6069 41.6487 36.494 41.6487 36.3671C41.6487 36.1839 41.5882 36.0352 41.4672 35.9204C41.3458 35.8049 41.1652 35.747 40.9254 35.747H40.061V37.0227ZM45.2076 35.4638H45.5282V37.7491C45.5282 37.9838 45.4722 38.1939 45.3601 38.3793C45.2481 38.5634 45.092 38.709 44.8921 38.8159C44.6931 38.9216 44.4617 38.9741 44.1974 38.9741C43.9347 38.9741 43.7029 38.921 43.503 38.814C43.3031 38.7074 43.147 38.5619 43.0349 38.3777C42.9229 38.1933 42.8669 37.9838 42.8669 37.7491V35.4638H43.1875V37.7272C43.1875 37.9104 43.229 38.0737 43.3127 38.2176C43.3961 38.3603 43.5133 38.4726 43.6643 38.5546C43.8162 38.6365 43.9939 38.6777 44.1974 38.6777C44.4008 38.6777 44.5788 38.6365 44.7308 38.5546C44.8827 38.4726 44.9999 38.3603 45.0823 38.2176C45.1657 38.0737 45.2076 37.9104 45.2076 37.7272V35.4638ZM46.7808 35.4638V38.9153H46.4601V35.4638H46.7808ZM47.7143 38.9153V35.4638H48.035V38.6321H49.7086V38.9153H47.7143ZM51.4595 38.9153H50.4307V35.4638H51.5213C51.8561 35.4638 52.1426 35.5325 52.3802 35.6695C52.6194 35.8065 52.8022 36.0029 52.9291 36.2592C53.0559 36.5155 53.1193 36.8227 53.1193 37.1812C53.1193 37.5428 53.0543 37.8535 52.9239 38.1129C52.7948 38.3714 52.6062 38.5698 52.358 38.708C52.1111 38.8463 51.8117 38.9153 51.4595 38.9153ZM50.7513 38.6321H51.4405C51.7425 38.6321 51.9952 38.5736 52.1986 38.4568C52.4021 38.3401 52.5547 38.173 52.6564 37.9563C52.7581 37.7396 52.809 37.4811 52.809 37.1812C52.8077 36.8834 52.7575 36.6272 52.658 36.4127C52.5598 36.1982 52.4134 36.0333 52.2192 35.9188C52.0258 35.8043 51.7869 35.747 51.5023 35.747H50.7513V38.6321ZM55.2546 35.4638H55.6251L56.8993 38.4704H56.9299L58.204 35.4638H58.5745V38.9153H58.2726V36.1295H58.2452L57.0602 38.9153H56.7689L55.5839 36.1295H55.5566V38.9153H55.2546V35.4638ZM62.3873 37.1894C62.3873 37.5491 62.322 37.862 62.1916 38.1281C62.0616 38.3932 61.8819 38.5989 61.6534 38.745C61.4258 38.89 61.164 38.9624 60.8679 38.9624C60.5717 38.9624 60.3094 38.89 60.0808 38.745C59.8535 38.5989 59.6745 38.3932 59.5442 38.1281C59.4151 37.862 59.3504 37.5491 59.3504 37.1894C59.3504 36.83 59.4151 36.5177 59.5442 36.2526C59.6745 35.9862 59.8538 35.7805 60.0827 35.6356C60.3113 35.4898 60.573 35.4167 60.8679 35.4167C61.164 35.4167 61.4258 35.4898 61.6534 35.6356C61.8819 35.7805 62.0616 35.9862 62.1916 36.2526C62.322 36.5177 62.3873 36.83 62.3873 37.1894ZM62.0751 37.1894C62.0751 36.8806 62.0226 36.6161 61.9173 36.3959C61.8121 36.1744 61.6688 36.0055 61.4869 35.8884C61.3054 35.7717 61.099 35.7131 60.8679 35.7131C60.638 35.7131 60.4323 35.7717 60.2508 35.8884C60.0689 36.0055 59.925 36.1738 59.8184 36.394C59.7135 36.6142 59.6607 36.8793 59.6607 37.1894C59.6607 37.4985 59.7135 37.763 59.8184 37.9832C59.9237 38.2034 60.0673 38.3727 60.2488 38.4907C60.4307 38.6074 60.6371 38.666 60.8679 38.666C61.099 38.666 61.3054 38.6074 61.4869 38.4907C61.6698 38.3736 61.814 38.2053 61.9189 37.9851C62.0242 37.7636 62.0764 37.4985 62.0751 37.1894ZM63.1628 38.9153V35.4638H64.2963C64.5455 35.4638 64.7534 35.5081 64.9205 35.597C65.0886 35.6847 65.2147 35.8065 65.2994 35.9628C65.385 36.1178 65.4279 36.2959 65.4279 36.4968C65.4279 36.698 65.385 36.8755 65.2994 37.0293C65.2147 37.1834 65.0889 37.3036 64.9221 37.39C64.755 37.4767 64.5484 37.5197 64.3015 37.5197H63.336V37.2318H64.2928C64.4756 37.2318 64.6276 37.202 64.7489 37.1422C64.8713 37.0828 64.962 36.998 65.0216 36.8879C65.0821 36.7778 65.1124 36.6474 65.1124 36.4968C65.1124 36.3462 65.0821 36.2149 65.0216 36.1026C64.9611 35.989 64.8693 35.9014 64.7473 35.8397C64.626 35.7777 64.4727 35.747 64.2876 35.747H63.4835V38.9153H63.1628ZM64.7113 37.358L65.5753 38.9153H65.2051L64.3494 37.358H64.7113ZM66.2091 38.9153V35.4638H68.2462V35.747H66.5298V37.0464H68.1381V37.3295H66.5298V38.6321H68.2804V38.9153H66.2091Z" fill="#1A1947"/>
</g>
<defs>
<clipPath id="clip0_1_11">
<rect width="94" height="56" fill="white"/>
</clipPath>
</defs>
</svg>
