<svg width="292" height="177" viewBox="0 0 292 177" fill="none" xmlns="http://www.w3.org/2000/svg">
<path d="M50 29V1H155V29M50 147V176H155V147" stroke="#554951" stroke-width="2"/>
<rect y="38" width="100" height="100" fill="#1C171A"/>
<path d="M125.516 101H123.01L132.534 74.8182H135.091L144.615 101H142.109L133.902 77.9247H133.723L125.516 101ZM127.318 90.9645H140.307V93.1122H127.318V90.9645ZM149.102 101V74.8182H157.553C159.411 74.8182 160.962 75.1761 162.206 75.892C163.459 76.5994 164.401 77.5625 165.031 78.7812C165.67 80 165.99 81.3722 165.99 82.8977C165.99 84.4233 165.675 85.7997 165.044 87.027C164.413 88.2457 163.476 89.2131 162.232 89.929C160.987 90.6364 159.44 90.9901 157.591 90.9901H150.943V88.8423H157.527C158.899 88.8423 160.037 88.5866 160.94 88.0753C161.844 87.5554 162.517 86.848 162.96 85.9531C163.412 85.0582 163.638 84.0398 163.638 82.8977C163.638 81.7557 163.412 80.7372 162.96 79.8423C162.517 78.9474 161.839 78.2443 160.928 77.733C160.024 77.2216 158.878 76.9659 157.489 76.9659H151.493V101H149.102ZM171.602 101V74.8182H180.053C181.911 74.8182 183.462 75.1761 184.706 75.892C185.959 76.5994 186.901 77.5625 187.531 78.7812C188.17 80 188.49 81.3722 188.49 82.8977C188.49 84.4233 188.175 85.7997 187.544 87.027C186.913 88.2457 185.976 89.2131 184.732 89.929C183.487 90.6364 181.94 90.9901 180.091 90.9901H173.443V88.8423H180.027C181.399 88.8423 182.537 88.5866 183.44 88.0753C184.344 87.5554 185.017 86.848 185.46 85.9531C185.912 85.0582 186.138 84.0398 186.138 82.8977C186.138 81.7557 185.912 80.7372 185.46 79.8423C185.017 78.9474 184.339 78.2443 183.428 77.733C182.524 77.2216 181.378 76.9659 179.989 76.9659H173.993V101H171.602ZM194.102 101V74.8182H209.251V76.9659H196.493V86.8224H208.062V88.9702H196.493V101H194.102ZM215.196 101V74.8182H217.587V98.8523H230.064V101H215.196ZM255.891 87.9091C255.891 90.6364 255.405 93.0099 254.434 95.0298C253.462 97.0412 252.124 98.6009 250.419 99.7088C248.723 100.808 246.772 101.358 244.564 101.358C242.357 101.358 240.401 100.808 238.696 99.7088C237 98.6009 235.667 97.0412 234.695 95.0298C233.732 93.0099 233.25 90.6364 233.25 87.9091C233.25 85.1818 233.732 82.8125 234.695 80.8011C235.667 78.7812 237.005 77.2216 238.709 76.1222C240.414 75.0142 242.365 74.4602 244.564 74.4602C246.772 74.4602 248.723 75.0142 250.419 76.1222C252.124 77.2216 253.462 78.7812 254.434 80.8011C255.405 82.8125 255.891 85.1818 255.891 87.9091ZM253.564 87.9091C253.564 85.5653 253.172 83.5582 252.388 81.8878C251.604 80.2088 250.534 78.9261 249.179 78.0398C247.824 77.1534 246.286 76.7102 244.564 76.7102C242.851 76.7102 241.317 77.1534 239.962 78.0398C238.607 78.9261 237.533 80.2045 236.74 81.875C235.956 83.5455 235.564 85.5568 235.564 87.9091C235.564 90.2528 235.956 92.2599 236.74 93.9304C237.525 95.6009 238.594 96.8835 239.949 97.7784C241.304 98.6648 242.843 99.108 244.564 99.108C246.286 99.108 247.824 98.6648 249.179 97.7784C250.543 96.892 251.617 95.6136 252.401 93.9432C253.185 92.2642 253.573 90.2528 253.564 87.9091ZM266.224 101L259.052 74.8182H261.481L267.413 97.331H267.617L273.549 74.8182H276.31L282.242 97.331H282.447L288.379 74.8182H290.82L283.648 101H281.092L275.019 78.794H274.853L268.781 101H266.224Z" fill="#554951"/>
<path d="M123.449 123V112.091H127.13C127.84 112.091 128.431 112.215 128.903 112.464C129.379 112.712 129.736 113.051 129.974 113.481C130.212 113.911 130.331 114.399 130.331 114.946C130.331 115.401 130.255 115.789 130.102 116.113C129.949 116.436 129.741 116.697 129.479 116.896C129.216 117.094 128.923 117.238 128.6 117.327V117.412C128.951 117.437 129.292 117.561 129.623 117.785C129.953 118.005 130.224 118.314 130.438 118.712C130.651 119.11 130.757 119.586 130.757 120.14C130.757 120.69 130.635 121.182 130.39 121.615C130.145 122.045 129.768 122.384 129.26 122.632C128.756 122.877 128.113 123 127.332 123H123.449ZM124.445 122.105H127.332C128.174 122.105 128.795 121.919 129.196 121.546C129.601 121.173 129.804 120.704 129.804 120.14C129.804 119.724 129.702 119.348 129.5 119.01C129.301 118.669 129.019 118.4 128.653 118.201C128.291 118.002 127.865 117.902 127.375 117.902H124.445V122.105ZM124.445 117.018H127.22C127.65 117.018 128.026 116.929 128.349 116.752C128.673 116.574 128.925 116.329 129.106 116.017C129.287 115.704 129.377 115.347 129.377 114.946C129.377 114.367 129.189 113.897 128.813 113.534C128.436 113.169 127.875 112.986 127.13 112.986H124.445V117.018ZM140.432 112.091H141.428V119.314C141.428 120.056 141.254 120.72 140.906 121.306C140.558 121.888 140.073 122.348 139.452 122.686C138.834 123.02 138.115 123.186 137.294 123.186C136.478 123.186 135.758 123.018 135.137 122.68C134.516 122.343 134.031 121.883 133.683 121.301C133.335 120.718 133.161 120.056 133.161 119.314V112.091H134.157V119.245C134.157 119.824 134.286 120.34 134.546 120.795C134.805 121.246 135.169 121.601 135.638 121.86C136.11 122.119 136.662 122.249 137.294 122.249C137.926 122.249 138.479 122.119 138.951 121.86C139.423 121.601 139.787 121.246 140.043 120.795C140.302 120.34 140.432 119.824 140.432 119.245V112.091ZM145.319 112.091V123H144.323V112.091H145.319ZM148.219 123V112.091H149.215V122.105H154.414V123H148.219ZM159.853 123H156.657V112.091H160.045C161.085 112.091 161.975 112.308 162.713 112.741C163.456 113.174 164.024 113.795 164.418 114.605C164.812 115.415 165.009 116.386 165.009 117.519C165.009 118.662 164.807 119.644 164.402 120.464C164.001 121.281 163.415 121.908 162.644 122.345C161.877 122.782 160.947 123 159.853 123ZM157.653 122.105H159.794C160.732 122.105 161.517 121.92 162.149 121.551C162.781 121.182 163.255 120.654 163.571 119.969C163.887 119.284 164.045 118.467 164.045 117.519C164.041 116.578 163.885 115.768 163.576 115.09C163.271 114.412 162.816 113.891 162.213 113.529C161.612 113.167 160.87 112.986 159.986 112.986H157.653V122.105ZM171.642 112.091H172.793L176.751 121.594H176.846L180.804 112.091H181.955V123H181.017V114.195H180.932L177.251 123H176.346L172.665 114.195H172.58V123H171.642V112.091ZM193.799 117.545C193.799 118.682 193.596 119.671 193.191 120.512C192.787 121.35 192.229 122 191.519 122.462C190.812 122.92 189.999 123.149 189.079 123.149C188.159 123.149 187.344 122.92 186.634 122.462C185.928 122 185.372 121.35 184.967 120.512C184.566 119.671 184.365 118.682 184.365 117.545C184.365 116.409 184.566 115.422 184.967 114.584C185.372 113.742 185.929 113.092 186.64 112.634C187.35 112.173 188.163 111.942 189.079 111.942C189.999 111.942 190.812 112.173 191.519 112.634C192.229 113.092 192.787 113.742 193.191 114.584C193.596 115.422 193.799 116.409 193.799 117.545ZM192.829 117.545C192.829 116.569 192.666 115.733 192.339 115.037C192.012 114.337 191.567 113.803 191.002 113.433C190.438 113.064 189.797 112.879 189.079 112.879C188.365 112.879 187.726 113.064 187.162 113.433C186.597 113.803 186.15 114.335 185.819 115.031C185.493 115.727 185.329 116.565 185.329 117.545C185.329 118.522 185.493 119.358 185.819 120.054C186.146 120.75 186.592 121.285 187.156 121.658C187.721 122.027 188.362 122.212 189.079 122.212C189.797 122.212 190.438 122.027 191.002 121.658C191.57 121.288 192.018 120.756 192.344 120.06C192.671 119.36 192.833 118.522 192.829 117.545ZM196.208 123V112.091H199.729C200.503 112.091 201.149 112.231 201.668 112.512C202.19 112.789 202.582 113.174 202.845 113.668C203.111 114.158 203.244 114.721 203.244 115.356C203.244 115.992 203.111 116.553 202.845 117.039C202.582 117.526 202.191 117.906 201.673 118.179C201.154 118.453 200.512 118.589 199.745 118.589H196.746V117.679H199.718C200.286 117.679 200.758 117.585 201.135 117.396C201.515 117.208 201.797 116.94 201.982 116.592C202.17 116.244 202.264 115.832 202.264 115.356C202.264 114.88 202.17 114.465 201.982 114.11C201.794 113.751 201.509 113.474 201.13 113.279C200.753 113.083 200.277 112.986 199.702 112.986H197.204V123H196.208ZM201.018 118.078L203.702 123H202.552L199.894 118.078H201.018ZM205.671 123V112.091H211.999V112.986H206.667V117.093H211.663V117.988H206.667V122.105H212.105V123H205.671Z" fill="#554951"/>
</svg>
